<svg width="39" height="38" viewBox="0 0 39 38" fill="none" xmlns="http://www.w3.org/2000/svg">
<rect x="0.5" width="38" height="38" rx="19" fill="#E6F0F7"/>
<path d="M27.5652 19.4973L23.9493 23.1616C23.8171 23.2896 23.6415 23.3615 23.4586 23.3622C23.3699 23.3625 23.2821 23.3447 23.2003 23.3099C23.0733 23.2578 22.9646 23.1686 22.8879 23.0536C22.8112 22.9386 22.7701 22.8031 22.7698 22.6643V19.698H17.4321C17.2494 19.698 17.0742 19.6244 16.9451 19.4935C16.8159 19.3626 16.7433 19.1851 16.7433 19C16.7433 18.8149 16.8159 18.6374 16.9451 18.5065C17.0742 18.3756 17.2494 18.302 17.4321 18.302H22.7698V15.3357C22.7701 15.1969 22.8112 15.0614 22.8879 14.9464C22.9646 14.8314 23.0733 14.7422 23.2003 14.6901C23.326 14.6395 23.4635 14.6266 23.5963 14.6529C23.7291 14.6792 23.8516 14.7436 23.9493 14.8384L27.5652 18.5027C27.6945 18.635 27.7671 18.8138 27.7671 19C27.7671 19.1862 27.6945 19.365 27.5652 19.4973ZM17.4321 25.9796H12.6109V12.0204H17.4321C17.6147 12.0204 17.7899 11.9469 17.9191 11.816C18.0483 11.6851 18.1208 11.5076 18.1208 11.3225C18.1208 11.1374 18.0483 10.9598 17.9191 10.8289C17.7899 10.698 17.6147 10.6245 17.4321 10.6245H12.6109C12.2456 10.6245 11.8952 10.7716 11.6369 11.0334C11.3785 11.2952 11.2334 11.6502 11.2334 12.0204V25.9796C11.2334 26.3498 11.3785 26.7048 11.6369 26.9666C11.8952 27.2284 12.2456 27.3755 12.6109 27.3755H17.4321C17.6147 27.3755 17.7899 27.302 17.9191 27.1711C18.0483 27.0402 18.1208 26.8626 18.1208 26.6775C18.1208 26.4924 18.0483 26.3149 17.9191 26.184C17.7899 26.0531 17.6147 25.9796 17.4321 25.9796Z" fill="#111111"/>
</svg>
