<svg width="34" height="34" viewBox="0 0 34 34" fill="none" xmlns="http://www.w3.org/2000/svg">
<path fill-rule="evenodd" clip-rule="evenodd" d="M13.8523 29.75H20.148C24.5694 29.75 26.7808 29.75 28.3689 28.7087C29.0541 28.2596 29.6443 27.6801 30.1057 27.0031C31.1668 25.4447 31.1668 23.273 31.1668 18.9323C31.1668 14.5902 31.1668 12.4199 30.1057 10.8616C29.6443 10.1846 29.0542 9.605 28.3689 9.15591C27.3489 8.48583 26.0711 8.24641 24.1147 8.16141C23.1811 8.16141 22.3778 7.46725 22.1951 6.56766C22.0554 5.90873 21.6925 5.31822 21.1678 4.89593C20.643 4.47364 19.9886 4.24548 19.315 4.25H14.6853C13.2857 4.25 12.0801 5.22041 11.8052 6.56766C11.6225 7.46725 10.8192 8.16141 9.88566 8.16141C7.93066 8.24641 6.65283 8.48725 5.63141 9.15591C4.94662 9.60509 4.35694 10.1847 3.896 10.8616C2.8335 12.4199 2.8335 14.5902 2.8335 18.9323C2.8335 23.273 2.8335 25.4433 3.89458 27.0031C4.35358 27.6774 4.94291 28.2568 5.63141 28.7087C7.2195 29.75 9.43091 29.75 13.8523 29.75ZM17.0002 13.1367C13.7404 13.1367 11.0969 15.7307 11.0969 18.9309C11.0969 22.1326 13.7404 24.7265 17.0002 24.7265C20.2599 24.7265 22.9034 22.1326 22.9034 18.9323C22.9034 15.7307 20.2599 13.1367 17.0002 13.1367ZM17.0002 15.4544C15.0452 15.4544 13.4585 17.0113 13.4585 18.9323C13.4585 20.8519 15.0452 22.4088 17.0002 22.4088C18.9552 22.4088 20.5418 20.8519 20.5418 18.9323C20.5418 17.0113 18.9552 15.4544 17.0002 15.4544ZM23.6897 14.2956C23.6897 13.6552 24.2181 13.1367 24.8712 13.1367H26.4437C27.0953 13.1367 27.6252 13.6552 27.6252 14.2956C27.6222 14.6057 27.4962 14.9019 27.2749 15.1192C27.0537 15.3365 26.7552 15.4571 26.4451 15.4544H24.8712C24.7175 15.4559 24.565 15.4271 24.4225 15.3697C24.2799 15.3123 24.1501 15.2273 24.0404 15.1197C23.9307 15.0121 23.8432 14.8839 23.7831 14.7425C23.7229 14.6011 23.6911 14.4493 23.6897 14.2956Z" fill="#FF5722"/>
</svg>
