<svg width="34" height="34" viewBox="0 0 34 34" fill="none" xmlns="http://www.w3.org/2000/svg">
<path d="M25.5848 32.5833H27.9365C29.1265 32.5833 30.104 31.6625 30.2457 30.5008L32.5832 7.15416H25.4998V1.41666H22.709V7.15416H15.6682L16.0932 10.4692C18.5157 11.135 20.7823 12.3392 22.1423 13.6708C24.1823 15.6825 25.5848 17.765 25.5848 21.165V32.5833ZM1.4165 31.1667V29.75H22.709V31.1667C22.709 31.9317 22.0715 32.5833 21.2498 32.5833H2.83317C2.054 32.5833 1.4165 31.9317 1.4165 31.1667ZM22.709 21.25C22.709 9.91666 1.4165 9.91666 1.4165 21.25H22.709ZM1.4165 24.0833H22.6665V26.9167H1.4165V24.0833Z" fill="#FF5722"/>
</svg>
