<svg width="34" height="34" viewBox="0 0 34 34" fill="none" xmlns="http://www.w3.org/2000/svg">
<path d="M1.4165 26.9167V5.66667H4.24984V19.8333H15.5832V8.5H26.9165C28.4748 8.5 29.8089 9.05486 30.9186 10.1646C32.0283 11.2743 32.5832 12.6083 32.5832 14.1667V26.9167H29.7498V22.6667H4.24984V26.9167H1.4165ZM9.9165 18.4167C8.73595 18.4167 7.73248 18.0035 6.90609 17.1771C6.0797 16.3507 5.6665 15.3472 5.6665 14.1667C5.6665 12.9861 6.0797 11.9826 6.90609 11.1562C7.73248 10.3299 8.73595 9.91667 9.9165 9.91667C11.0971 9.91667 12.1005 10.3299 12.9269 11.1562C13.7533 11.9826 14.1665 12.9861 14.1665 14.1667C14.1665 15.3472 13.7533 16.3507 12.9269 17.1771C12.1005 18.0035 11.0971 18.4167 9.9165 18.4167ZM18.4165 19.8333H29.7498V14.1667C29.7498 13.3875 29.4722 12.7202 28.9168 12.1649C28.3615 11.6096 27.6947 11.3324 26.9165 11.3333H18.4165V19.8333ZM9.9165 15.5833C10.3179 15.5833 10.6546 15.4473 10.9266 15.1753C11.1986 14.9033 11.3341 14.5671 11.3332 14.1667C11.3332 13.7653 11.1972 13.4286 10.9252 13.1566C10.6532 12.8846 10.3169 12.7491 9.9165 12.75C9.51511 12.75 9.17842 12.886 8.90642 13.158C8.63442 13.43 8.49889 13.7662 8.49984 14.1667C8.49984 14.5681 8.63584 14.9047 8.90784 15.1767C9.17984 15.4487 9.51606 15.5843 9.9165 15.5833ZM9.9165 15.5833C9.51511 15.5833 9.17842 15.4473 8.90642 15.1753C8.63442 14.9033 8.49889 14.5671 8.49984 14.1667C8.49984 13.7653 8.63584 13.4286 8.90784 13.1566C9.17984 12.8846 9.51606 12.7491 9.9165 12.75C10.3179 12.75 10.6546 12.886 10.9266 13.158C11.1986 13.43 11.3341 13.7662 11.3332 14.1667C11.3332 14.5681 11.1972 14.9047 10.9252 15.1767C10.6532 15.4487 10.3169 15.5843 9.9165 15.5833ZM18.4165 11.3333H26.9165C27.6957 11.3333 28.3629 11.611 28.9183 12.1663C29.4736 12.7217 29.7508 13.3884 29.7498 14.1667V19.8333H18.4165V11.3333Z" fill="#FF5722"/>
</svg>
