<svg width="30" height="30" viewBox="0 0 30 30" fill="none" xmlns="http://www.w3.org/2000/svg">
<path d="M6.25 11.4375V8.75C6.25 7.375 7.375 6.25 8.75 6.25H21.25C22.625 6.25 23.75 7.375 23.75 8.75V11.45C22.3 11.9625 21.25 13.3375 21.25 14.9625V17.5H8.75V14.95C8.75 13.3375 7.7 11.95 6.25 11.4375ZM25 12.5C23.625 12.5 22.5 13.625 22.5 15V18.75H7.5V15C7.5 14.337 7.23661 13.7011 6.76777 13.2322C6.29893 12.7634 5.66304 12.5 5 12.5C4.33696 12.5 3.70107 12.7634 3.23223 13.2322C2.76339 13.7011 2.5 14.337 2.5 15V21.25C2.5 22.625 3.625 23.75 5 23.75V26.25H7.5V23.75H22.5V26.25H25V23.75C26.375 23.75 27.5 22.625 27.5 21.25V15C27.5 13.625 26.375 12.5 25 12.5Z" fill="#2C8900"/>
</svg>
