<svg width="35" height="35" viewBox="0 0 35 35" fill="none" xmlns="http://www.w3.org/2000/svg">
<path fill-rule="evenodd" clip-rule="evenodd" d="M30.2501 25.9999C30.6258 25.9999 30.9862 26.1492 31.2518 26.4148C31.5175 26.6805 31.6668 27.0409 31.6668 27.4166C31.6668 27.7923 31.5175 28.1526 31.2518 28.4183C30.9862 28.684 30.6258 28.8333 30.2501 28.8333H3.33342C2.9577 28.8333 2.59737 28.684 2.33169 28.4183C2.06601 28.1526 1.91676 27.7923 1.91676 27.4166C1.91676 27.0409 2.06601 26.6805 2.33169 26.4148C2.59737 26.1492 2.9577 25.9999 3.33342 25.9999H30.2501ZM17.5001 7.58325C22.0674 7.58325 25.9179 9.10617 28.6464 11.251C31.3253 13.3562 33.0834 16.2037 33.0834 18.9166C33.0834 20.1094 32.7179 21.1266 32.0733 21.9483C31.4458 22.7501 30.6085 23.2941 29.7557 23.6681C28.0755 24.4019 26.0766 24.5833 24.5834 24.5833H4.74159C4.36996 24.5831 4.00202 24.5096 3.65883 24.367C3.31563 24.2245 3.00392 24.0156 2.74154 23.7525C2.47915 23.4893 2.27125 23.1769 2.12972 22.8333C1.98819 22.4897 1.91583 22.1215 1.91676 21.7499V10.4166C1.91676 8.85684 3.17759 7.58325 4.74726 7.58325H17.5001ZM10.4168 10.4166H4.75009V14.6666H10.4168V10.4166ZM17.5001 10.4166H13.2501V14.6666H18.9168V10.4733C18.6047 10.448 18.2919 10.4315 17.9789 10.4237L17.5001 10.4166ZM21.7501 10.9592V14.6666H28.1973C27.794 14.238 27.3588 13.8407 26.8954 13.478C25.5326 12.407 23.7929 11.5018 21.7501 10.9592Z" fill="#2C8900"/>
</svg>
