<svg width="35" height="35" viewBox="0 0 35 35" fill="none" xmlns="http://www.w3.org/2000/svg">
<g clip-path="url(#clip0_336_379)">
<path d="M15.375 2.62505C14.6684 2.62505 14.1 3.3356 14.1 4.2188C14.1 5.102 14.6684 5.81255 15.375 5.81255H18.4403L19.3116 7.82466L14.1 13.25L11.6934 10.2418C11.0559 9.44497 10.19 9.00005 9.28687 9.00005H3.9C2.95969 9.00005 2.2 9.94966 2.2 11.125V13.25H7.3C11.9963 13.25 15.8 18.0047 15.8 23.875C15.8 24.6055 15.7416 25.3161 15.63 26H19.37C19.2584 25.3161 19.2 24.6055 19.2 23.875C19.2 20.4086 20.5281 17.3274 22.5841 15.3883L23.4022 17.2875C21.8775 18.8481 20.9 21.2188 20.9 23.875C20.9 28.57 23.9441 32.375 27.7 32.375C31.4559 32.375 34.5 28.57 34.5 23.875C34.5 19.1801 31.4559 15.375 27.7 15.375C26.9828 15.375 26.2922 15.5145 25.6441 15.7735L22.7169 9.00005H26C26.9403 9.00005 27.7 8.05044 27.7 6.87505V4.75005C27.7 3.57466 26.9403 2.62505 26 2.62505H24.9163C24.5178 2.62505 24.1353 2.79771 23.8272 3.11646L21.3091 5.7395L20.5653 4.01294C20.1934 3.1563 19.4762 2.61841 18.6953 2.61841H15.375V2.62505ZM25.0809 21.1657L26.5791 24.6321C26.9137 25.409 27.6894 25.6946 28.3056 25.2762C28.9219 24.8579 29.1556 23.8883 28.8209 23.118L27.3228 19.6516C27.445 19.6317 27.5725 19.625 27.7 19.625C29.5753 19.625 31.1 21.5309 31.1 23.875C31.1 26.2192 29.5753 28.125 27.7 28.125C25.8247 28.125 24.3 26.2192 24.3 23.875C24.3 22.8458 24.5922 21.9028 25.0809 21.1657ZM10.4503 25.4688C9.94563 27.0293 8.72375 28.125 7.3 28.125C5.42469 28.125 3.9 26.2192 3.9 23.875C3.9 21.5309 5.42469 19.625 7.3 19.625C8.72906 19.625 9.95094 20.7208 10.4503 22.2813H13.9778C13.3828 18.35 10.6203 15.375 7.3 15.375C3.54406 15.375 0.5 19.1801 0.5 23.875C0.5 28.57 3.54406 32.375 7.3 32.375C10.6203 32.375 13.3828 29.4 13.9831 25.4688H10.4503ZM7.3 26C7.75087 26 8.18327 25.7762 8.50208 25.3777C8.82089 24.9791 9 24.4386 9 23.875C9 23.3115 8.82089 22.771 8.50208 22.3724C8.18327 21.9739 7.75087 21.75 7.3 21.75C6.84913 21.75 6.41673 21.9739 6.09792 22.3724C5.77911 22.771 5.6 23.3115 5.6 23.875C5.6 24.4386 5.77911 24.9791 6.09792 25.3777C6.41673 25.7762 6.84913 26 7.3 26Z" fill="#2C8900"/>
</g>
<defs>
<clipPath id="clip0_336_379">
<rect width="34" height="34" fill="white" transform="translate(0.5 0.5)"/>
</clipPath>
</defs>
</svg>
