<svg width="35" height="35" viewBox="0 0 35 35" fill="none" xmlns="http://www.w3.org/2000/svg">
<path fill-rule="evenodd" clip-rule="evenodd" d="M22.8323 6.16675C23.6214 6.16677 24.395 6.38652 25.0663 6.80137C25.7376 7.21622 26.2802 7.80979 26.6332 8.51558L28.5967 12.4412C28.9423 12.2995 29.2823 12.1465 29.6167 11.9822C29.9529 11.8142 30.3422 11.7867 30.6987 11.9058C31.0552 12.0248 31.3499 12.2806 31.5178 12.6168C31.6858 12.9531 31.7133 13.3423 31.5942 13.6989C31.4752 14.0554 31.2194 14.3501 30.8832 14.518C30.5427 14.6696 30.2003 14.8169 29.8561 14.96L31.2175 17.6842C31.513 18.2749 31.6668 18.9264 31.6666 19.5868V23.1667C31.6675 23.7648 31.5417 24.3563 31.2975 24.9023C31.0533 25.4483 30.6963 25.9364 30.2499 26.3344V28.1251C30.2499 28.6887 30.026 29.2292 29.6275 29.6277C29.229 30.0262 28.6885 30.2501 28.1249 30.2501C27.5613 30.2501 27.0208 30.0262 26.6223 29.6277C26.2238 29.2292 25.9999 28.6887 25.9999 28.1251V27.4167H8.99992V28.1251C8.99992 28.6887 8.77604 29.2292 8.37752 29.6277C7.97901 30.0262 7.4385 30.2501 6.87492 30.2501C6.31133 30.2501 5.77083 30.0262 5.37232 29.6277C4.9738 29.2292 4.74992 28.6887 4.74992 28.1251V26.3344C3.88009 25.5552 3.33325 24.4247 3.33325 23.1667V19.5854C3.33352 18.9259 3.48727 18.2755 3.78234 17.6857L5.13242 14.9827C4.791 14.8382 4.45242 14.6852 4.1195 14.5194C3.78493 14.3493 3.53061 14.0545 3.41136 13.6986C3.29211 13.3427 3.31748 12.9542 3.482 12.6168C3.5651 12.4503 3.68021 12.3017 3.82075 12.1797C3.96129 12.0576 4.1245 11.9645 4.30106 11.9055C4.47762 11.8466 4.66407 11.823 4.84974 11.8362C5.03542 11.8493 5.21668 11.8989 5.38317 11.9822C5.7175 12.1479 6.05892 12.2995 6.40317 12.4412L8.36667 8.517C8.71949 7.81094 9.26196 7.21708 9.93329 6.80197C10.6046 6.38686 11.3783 6.16691 12.1676 6.16675H22.8323ZM11.1249 18.9167C10.5613 18.9167 10.0208 19.1406 9.62232 19.5391C9.2238 19.9377 8.99992 20.4782 8.99992 21.0417C8.99992 21.6053 9.2238 22.1458 9.62232 22.5444C10.0208 22.9429 10.5613 23.1667 11.1249 23.1667C11.6885 23.1667 12.229 22.9429 12.6275 22.5444C13.026 22.1458 13.2499 21.6053 13.2499 21.0417C13.2499 20.4782 13.026 19.9377 12.6275 19.5391C12.229 19.1406 11.6885 18.9167 11.1249 18.9167ZM23.8749 18.9167C23.3113 18.9167 22.7708 19.1406 22.3723 19.5391C21.9738 19.9377 21.7499 20.4782 21.7499 21.0417C21.7499 21.6053 21.9738 22.1458 22.3723 22.5444C22.7708 22.9429 23.3113 23.1667 23.8749 23.1667C24.4385 23.1667 24.979 22.9429 25.3775 22.5444C25.776 22.1458 25.9999 21.6053 25.9999 21.0417C25.9999 20.4782 25.776 19.9377 25.3775 19.5391C24.979 19.1406 24.4385 18.9167 23.8749 18.9167ZM22.8323 9.00008H12.1676C11.9344 9.00005 11.7048 9.05757 11.4992 9.16754C11.2936 9.27751 11.1183 9.43653 10.9889 9.6305L10.9011 9.7835L9.10192 13.379C11.2949 14.0363 14.2501 14.6667 17.4999 14.6667C20.5344 14.6667 23.3097 14.1171 25.4474 13.5093L25.8965 13.379L24.0988 9.7835C23.9945 9.57499 23.8404 9.39543 23.6501 9.26074C23.4598 9.12606 23.2392 9.04042 23.0079 9.01141L22.8337 9.00008H22.8323Z" fill="#2C8900"/>
</svg>
