<svg width="24" height="28" viewBox="0 0 24 28" fill="none" xmlns="http://www.w3.org/2000/svg">
<path d="M20.5001 13.0833H3.50008V5.99992H20.5001M18.3751 21.5833C17.8115 21.5833 17.271 21.3594 16.8725 20.9609C16.474 20.5623 16.2501 20.0218 16.2501 19.4583C16.2501 18.8947 16.474 18.3542 16.8725 17.9556C17.271 17.5571 17.8115 17.3333 18.3751 17.3333C18.9387 17.3333 19.4792 17.5571 19.8777 17.9556C20.2762 18.3542 20.5001 18.8947 20.5001 19.4583C20.5001 20.0218 20.2762 20.5623 19.8777 20.9609C19.4792 21.3594 18.9387 21.5833 18.3751 21.5833ZM5.62508 21.5833C5.0615 21.5833 4.52099 21.3594 4.12248 20.9609C3.72396 20.5623 3.50008 20.0218 3.50008 19.4583C3.50008 18.8947 3.72396 18.3542 4.12248 17.9556C4.52099 17.5571 5.0615 17.3333 5.62508 17.3333C6.18867 17.3333 6.72917 17.5571 7.12768 17.9556C7.5262 18.3542 7.75008 18.8947 7.75008 19.4583C7.75008 20.0218 7.5262 20.5623 7.12768 20.9609C6.72917 21.3594 6.18867 21.5833 5.62508 21.5833ZM0.666748 20.1666C0.666748 21.4133 1.21925 22.5324 2.08341 23.3116V25.8333C2.08341 26.209 2.23267 26.5693 2.49835 26.835C2.76402 27.1007 3.12436 27.2499 3.50008 27.2499H4.91675C5.29247 27.2499 5.65281 27.1007 5.91848 26.835C6.18416 26.5693 6.33341 26.209 6.33341 25.8333V24.4166H17.6667V25.8333C17.6667 26.209 17.816 26.5693 18.0817 26.835C18.3474 27.1007 18.7077 27.2499 19.0834 27.2499H20.5001C20.8758 27.2499 21.2361 27.1007 21.5018 26.835C21.7675 26.5693 21.9167 26.209 21.9167 25.8333V23.3116C22.7809 22.5324 23.3334 21.4133 23.3334 20.1666V5.99992C23.3334 1.04159 18.2617 0.333252 12.0001 0.333252C5.73841 0.333252 0.666748 1.04159 0.666748 5.99992V20.1666Z" fill="#2C8900"/>
</svg>
