<svg width="82" height="81" viewBox="0 0 82 81" fill="none" xmlns="http://www.w3.org/2000/svg">
<path d="M40.9999 74.25C36.2735 74.25 31.8319 73.3635 27.6749 71.5905C23.518 69.8175 19.902 67.4134 16.827 64.3781C13.752 61.3406 11.3182 57.7687 9.52559 53.6625C7.73297 49.5562 6.83553 45.1687 6.83325 40.5C6.83325 35.8313 7.7307 31.4438 9.52559 27.3375C11.3205 23.2313 13.7543 19.6594 16.827 16.6219C19.902 13.5844 23.518 11.1803 27.6749 9.4095C31.8319 7.63875 36.2735 6.75225 40.9999 6.75C45.7263 6.75 50.168 7.6365 54.3249 9.4095C58.4819 11.1825 62.0978 13.5866 65.1728 16.6219C68.2478 19.6594 70.6828 23.2313 72.4777 27.3375C74.2726 31.4438 75.1689 35.8313 75.1666 40.5C75.1666 45.1687 74.2691 49.5562 72.4743 53.6625C70.6794 57.7687 68.2456 61.3406 65.1728 64.3781C62.0978 67.4156 58.4819 69.8209 54.3249 71.5939C50.168 73.3669 45.7263 74.2522 40.9999 74.25Z" fill="#FFD233"/>
<path d="M41.1967 56.7732C40.7005 56.7728 40.2849 56.6044 39.9501 56.2681C39.6153 55.9318 39.4475 55.5163 39.4467 55.0215C39.4469 54.8173 39.4909 54.6056 39.5786 54.3863C39.6664 54.167 39.7979 53.9705 39.9732 53.7967L48.0803 45.7084L46.8115 44.4384L38.7482 52.5268C38.5729 52.7017 38.3831 52.8328 38.1787 52.9201C37.9743 53.0075 37.7553 53.051 37.5218 53.0509C37.0255 53.0504 36.6094 52.8827 36.2734 52.5475C35.9374 52.2123 35.7702 51.7962 35.7718 51.2991C35.772 51.0074 35.816 50.7665 35.9037 50.5764C35.9915 50.3863 36.1084 50.2189 36.2544 50.0743L44.3615 41.986L43.1366 40.7598L35.0295 48.8044C34.8542 48.9793 34.6643 49.1104 34.4599 49.1977C34.2555 49.2851 34.022 49.3286 33.7592 49.3284C33.2922 49.328 32.8837 49.1527 32.5337 48.8023C32.1837 48.452 32.0089 48.0434 32.0092 47.5767C32.0094 47.3433 32.0534 47.1246 32.1411 46.9204C32.2289 46.7163 32.3604 46.5268 32.5357 46.3519L40.6428 38.2636L39.374 37.0374L31.3107 45.1257C31.1646 45.2715 30.9894 45.388 30.785 45.4753C30.5806 45.5627 30.3324 45.6062 30.0405 45.606C29.5443 45.6056 29.1281 45.4372 28.7921 45.1009C28.4561 44.7646 28.2889 44.349 28.2905 43.8543C28.2907 43.6209 28.3347 43.4022 28.4224 43.198C28.5101 42.9939 28.6417 42.8044 28.8169 42.6295L38.5893 32.8798L45.1518 39.4925C45.4726 39.8137 45.8519 40.0695 46.2896 40.2601C46.7273 40.4507 47.165 40.5455 47.6029 40.5447C48.537 40.5455 49.3546 40.2177 50.0557 39.5614C50.7569 38.905 51.1078 38.0669 51.1087 37.0471C51.109 36.6387 51.0364 36.2156 50.8908 35.7779C50.7452 35.3403 50.4828 34.9316 50.1037 34.5521L42.2724 26.7131C42.7691 26.2468 43.324 25.8896 43.9372 25.6416C44.5504 25.3936 45.1635 25.2704 45.7765 25.2721C46.5355 25.2727 47.236 25.3975 47.878 25.6466C48.5199 25.8957 49.1034 26.2824 49.6284 26.8067L57.0221 34.2515C57.5471 34.777 57.9337 35.3608 58.1819 36.0028C58.4301 36.6447 58.5532 37.3887 58.5513 38.2347C58.5509 38.8181 58.419 39.4084 58.1558 40.0056C57.8926 40.6028 57.5127 41.1498 57.016 41.6464L42.4232 56.2492C42.1894 56.4823 41.985 56.628 41.8098 56.6862C41.6346 56.7444 41.4302 56.7734 41.1967 56.7732ZM26.1897 42.7586L25.0522 41.62C24.5563 41.1528 24.1773 40.5983 23.9151 39.9563C23.6529 39.3143 23.5221 38.6433 23.5227 37.9432C23.5233 37.1847 23.6699 36.4847 23.9623 35.8432C24.2547 35.2017 24.6201 34.6623 25.0583 34.2251L32.4643 26.7925C32.9317 26.3262 33.4867 25.9544 34.1291 25.6773C34.7715 25.4001 35.3992 25.2623 36.0122 25.264C36.8004 25.2646 37.5009 25.3749 38.1137 25.5948C38.7265 25.8147 39.3246 26.216 39.9079 26.7987L48.8767 35.7763C49.0517 35.9515 49.1829 36.1412 49.2703 36.3454C49.3577 36.5497 49.4013 36.7685 49.4011 37.0019C49.4007 37.4686 49.2252 37.8769 48.8746 38.2267C48.524 38.5764 48.1152 38.7511 47.6482 38.7507C47.3855 38.7505 47.1666 38.7136 46.9915 38.6399C46.8164 38.5663 46.6268 38.4278 46.4226 38.2246L38.5476 30.4294L26.1897 42.7586Z" fill="#2C8900"/>
</svg>
