<svg width="41" height="41" viewBox="0 0 41 41" fill="none" xmlns="http://www.w3.org/2000/svg">
<rect x="0.937744" y="0.12915" width="40" height="39.92" rx="19.96" fill="white"/>
<path d="M20.9377 10.1292C15.4377 10.1292 10.9377 14.6192 10.9377 20.1492C10.9377 25.1492 14.5977 29.2991 19.3777 30.0491V23.0492H16.8377V20.1492H19.3777V17.9392C19.3777 15.4292 20.8677 14.0492 23.1577 14.0492C24.2477 14.0492 25.3877 14.2392 25.3877 14.2392V16.7092H24.1277C22.8877 16.7092 22.4977 17.4792 22.4977 18.2692V20.1492H25.2777L24.8277 23.0492H22.4977V30.0491C24.8542 29.677 27 28.4747 28.5477 26.6592C30.0954 24.8438 30.9431 22.5348 30.9377 20.1492C30.9377 14.6192 26.4377 10.1292 20.9377 10.1292Z" fill="#2C8900"/>
</svg>
