<svg width="41" height="41" viewBox="0 0 41 41" fill="none" xmlns="http://www.w3.org/2000/svg">
<rect x="0.937744" y="0.0490723" width="40" height="40" rx="20" fill="white"/>
<path d="M20.9377 10.0491C23.6547 10.0491 23.9937 10.0591 25.0597 10.1091C26.1247 10.1591 26.8497 10.3261 27.4877 10.5741C28.1477 10.8281 28.7037 11.1721 29.2597 11.7271C29.7682 12.227 30.1617 12.8317 30.4127 13.4991C30.6597 14.1361 30.8277 14.8621 30.8777 15.9271C30.9247 16.9931 30.9377 17.3321 30.9377 20.0491C30.9377 22.7661 30.9277 23.1051 30.8777 24.1711C30.8277 25.2361 30.6597 25.9611 30.4127 26.5991C30.1624 27.2668 29.7689 27.8717 29.2597 28.3711C28.7597 28.8794 28.1551 29.2728 27.4877 29.5241C26.8507 29.7711 26.1247 29.9391 25.0597 29.9891C23.9937 30.0361 23.6547 30.0491 20.9377 30.0491C18.2207 30.0491 17.8817 30.0391 16.8157 29.9891C15.7507 29.9391 15.0257 29.7711 14.3877 29.5241C13.7201 29.2735 13.1153 28.88 12.6157 28.3711C12.1072 27.8713 11.7137 27.2665 11.4627 26.5991C11.2147 25.9621 11.0477 25.2361 10.9977 24.1711C10.9507 23.1051 10.9377 22.7661 10.9377 20.0491C10.9377 17.3321 10.9477 16.9931 10.9977 15.9271C11.0477 14.8611 11.2147 14.1371 11.4627 13.4991C11.713 12.8313 12.1065 12.2264 12.6157 11.7271C13.1154 11.2183 13.7202 10.8248 14.3877 10.5741C15.0257 10.3261 15.7497 10.1591 16.8157 10.1091C17.8817 10.0621 18.2207 10.0491 20.9377 10.0491ZM20.9377 15.0491C19.6117 15.0491 18.3399 15.5759 17.4022 16.5135C16.4645 17.4512 15.9377 18.723 15.9377 20.0491C15.9377 21.3752 16.4645 22.6469 17.4022 23.5846C18.3399 24.5223 19.6117 25.0491 20.9377 25.0491C22.2638 25.0491 23.5356 24.5223 24.4733 23.5846C25.411 22.6469 25.9377 21.3752 25.9377 20.0491C25.9377 18.723 25.411 17.4512 24.4733 16.5135C23.5356 15.5759 22.2638 15.0491 20.9377 15.0491ZM27.4377 14.7991C27.4377 14.4676 27.306 14.1496 27.0716 13.9152C26.8372 13.6808 26.5193 13.5491 26.1877 13.5491C25.8562 13.5491 25.5383 13.6808 25.3039 13.9152C25.0694 14.1496 24.9377 14.4676 24.9377 14.7991C24.9377 15.1306 25.0694 15.4485 25.3039 15.683C25.5383 15.9174 25.8562 16.0491 26.1877 16.0491C26.5193 16.0491 26.8372 15.9174 27.0716 15.683C27.306 15.4485 27.4377 15.1306 27.4377 14.7991ZM20.9377 17.0491C21.7334 17.0491 22.4965 17.3651 23.0591 17.9278C23.6217 18.4904 23.9377 19.2534 23.9377 20.0491C23.9377 20.8447 23.6217 21.6078 23.0591 22.1704C22.4965 22.733 21.7334 23.0491 20.9377 23.0491C20.1421 23.0491 19.379 22.733 18.8164 22.1704C18.2538 21.6078 17.9377 20.8447 17.9377 20.0491C17.9377 19.2534 18.2538 18.4904 18.8164 17.9278C19.379 17.3651 20.1421 17.0491 20.9377 17.0491Z" fill="#2C8900"/>
</svg>
