<svg width="39" height="39" viewBox="0 0 39 39" fill="none" xmlns="http://www.w3.org/2000/svg">
<rect x="0.937744" y="0.0490723" width="38" height="38" rx="19" fill="white"/>
<path d="M26.9377 10.0491C27.4682 10.0491 27.9769 10.2598 28.352 10.6349C28.727 11.0099 28.9377 11.5186 28.9377 12.0491V26.0491C28.9377 26.5795 28.727 27.0882 28.352 27.4633C27.9769 27.8384 27.4682 28.0491 26.9377 28.0491H12.9377C12.4073 28.0491 11.8986 27.8384 11.5235 27.4633C11.1485 27.0882 10.9377 26.5795 10.9377 26.0491V12.0491C10.9377 11.5186 11.1485 11.0099 11.5235 10.6349C11.8986 10.2598 12.4073 10.0491 12.9377 10.0491H26.9377ZM26.4377 25.5491V20.2491C26.4377 19.3845 26.0943 18.5553 25.4829 17.9439C24.8715 17.3325 24.0423 16.9891 23.1777 16.9891C22.3277 16.9891 21.3377 17.5091 20.8577 18.2891V17.1791H18.0677V25.5491H20.8577V20.6191C20.8577 19.8491 21.4777 19.2191 22.2477 19.2191C22.619 19.2191 22.9751 19.3666 23.2377 19.6291C23.5002 19.8917 23.6477 20.2478 23.6477 20.6191V25.5491H26.4377ZM14.8177 15.6091C15.2633 15.6091 15.6906 15.4321 16.0057 15.117C16.3207 14.802 16.4977 14.3746 16.4977 13.9291C16.4977 12.9991 15.7477 12.2391 14.8177 12.2391C14.3695 12.2391 13.9397 12.4171 13.6227 12.7341C13.3058 13.051 13.1277 13.4809 13.1277 13.9291C13.1277 14.8591 13.8877 15.6091 14.8177 15.6091ZM16.2077 25.5491V17.1791H13.4377V25.5491H16.2077Z" fill="#2C8900"/>
</svg>
