<svg width="41" height="41" viewBox="0 0 41 41" fill="none" xmlns="http://www.w3.org/2000/svg">
<rect x="0.937744" y="0.0490723" width="40" height="40" rx="20" fill="white"/>
<path d="M10.9418 30.0491L12.2938 25.0811C11.4029 23.5539 10.9349 21.8171 10.9378 20.0491C10.9378 14.5261 15.4148 10.0491 20.9378 10.0491C26.4608 10.0491 30.9378 14.5261 30.9378 20.0491C30.9378 25.5721 26.4608 30.0491 20.9378 30.0491C19.1705 30.0519 17.4344 29.5842 15.9078 28.6941L10.9418 30.0491ZM17.3288 15.3571C17.1996 15.3651 17.0734 15.3991 16.9578 15.4571C16.8493 15.5185 16.7503 15.5953 16.6638 15.6851C16.5438 15.7981 16.4758 15.8961 16.4028 15.9911C16.0332 16.4721 15.8344 17.0625 15.8378 17.6691C15.8398 18.1591 15.9678 18.6361 16.1678 19.0821C16.5768 19.9841 17.2498 20.9391 18.1388 21.8241C18.3528 22.0371 18.5618 22.2511 18.7868 22.4501C19.8901 23.4215 21.205 24.1221 22.6268 24.4961L23.1958 24.5831C23.3808 24.5931 23.5658 24.5791 23.7518 24.5701C24.043 24.555 24.3274 24.4762 24.5848 24.3391C24.7157 24.2716 24.8435 24.1982 24.9678 24.1191C24.9678 24.1191 25.0108 24.0911 25.0928 24.0291C25.2278 23.9291 25.3108 23.8581 25.4228 23.7411C25.5058 23.6551 25.5778 23.5541 25.6328 23.4391C25.7108 23.2761 25.7888 22.9651 25.8208 22.7061C25.8448 22.5081 25.8378 22.4001 25.8348 22.3331C25.8308 22.2261 25.7418 22.1151 25.6448 22.0681L25.0628 21.8071C25.0628 21.8071 24.1928 21.4281 23.6618 21.1861C23.6058 21.1617 23.5458 21.1478 23.4848 21.1451C23.4163 21.138 23.3472 21.1457 23.282 21.1676C23.2168 21.1896 23.1571 21.2252 23.1068 21.2721V21.2701C23.1018 21.2701 23.0348 21.3271 22.3118 22.2031C22.2703 22.2588 22.2131 22.301 22.1476 22.3241C22.082 22.3473 22.0111 22.3504 21.9438 22.3331C21.8786 22.3156 21.8148 22.2936 21.7528 22.2671C21.6288 22.2151 21.5858 22.1951 21.5008 22.1581L21.4958 22.1561C20.9237 21.9063 20.394 21.5689 19.9258 21.1561C19.7998 21.0461 19.6828 20.9261 19.5628 20.8101C19.1693 20.4333 18.8265 20.0071 18.5428 19.5421L18.4838 19.4471C18.4414 19.3832 18.4071 19.3144 18.3818 19.2421C18.3438 19.0951 18.4428 18.9771 18.4428 18.9771C18.4428 18.9771 18.6858 18.7111 18.7988 18.5671C18.8928 18.4474 18.9806 18.3229 19.0618 18.1941C19.1798 18.0041 19.2168 17.8091 19.1548 17.6581C18.8748 16.9741 18.5848 16.2931 18.2868 15.6171C18.2278 15.4831 18.0528 15.3871 17.8938 15.3681C17.8398 15.3621 17.7858 15.3561 17.7318 15.3521C17.5975 15.3454 17.4629 15.3477 17.3288 15.3571Z" fill="#2C8900"/>
</svg>
